<?xml version="1.0" encoding="utf-8"?>
<!-- Generator: Adobe Illustrator 28.0.0, SVG Export Plug-In . SVG Version: 6.00 Build 0)  -->
<svg fill="#ffffff" version="1.1" id="Layer_1" xmlns="http://www.w3.org/2000/svg" xmlns:xlink="http://www.w3.org/1999/xlink" x="0px" y="0px"
	 viewBox="0 0 3000 2000" style="enable-background:new 0 0 3000 3000;" xml:space="preserve">
<path d="M1181.1,1394.2c21.3,0,42.7-0.2,64,0.1c8.3,0.1,16.7,0.6,24.9,1.9c30.7,4.9,48.3,24.7,49.9,55.8c1.2,22.6-3.3,44.4-9,66.1
	c-7.6,29-16.2,57.7-23.2,86.8c-3.9,16.1-5.4,32.8-8,49.2c-0.7,4.6-1.4,9.3-2.8,13.7c-4.7,15.2-15.2,24.5-30.8,26.1
	c-10.5,1.1-21.5,1.3-31.8-0.7c-33.1-6.4-65.5-4.5-97.9,4.1c-20.3,5.4-40.6,10.7-61.2,14.6c-26.7,5-53.8,3.8-80.8,1.9
	c-41.2-3-81-12-118.9-28.8c-71.5-31.7-123.5-83.3-153.1-155.6c-36.5-89.1-42.5-181.1-13.3-272.9c38.3-120.4,122.2-194.1,244.3-224.1
	c54.2-13.3,108.9-14.1,163.3-0.2c33.6,8.6,65.1,22.1,91.9,44.6c54.5,45.7,74,104.8,57.2,173c-15.2,61.8-58.7,97.3-120.5,110.2
	c-25.5,5.3-51.1,3.1-76.3-2.7c-8.9-2-17.1-5.4-24.2-11.3c-11.7-9.7-15.3-22.5-10.2-36.8c0.9-2.5,2-5,3.4-7.2
	c18.3-30,20.1-62.2,12-95.5c-8.3-33.9-25.9-62.7-51.3-86.4c-16.4-15.3-35.6-25.6-58.2-28.7c-27.6-3.8-51.9,8.7-64.3,33.8
	c-9.9,20.1-11.3,41.6-9,63.4c3.3,31.4,13.1,61.2,23.4,90.7c29.1,82.9,65.7,162.4,111.6,237.4c13.5,22.1,29.2,43,44.8,63.7
	c6.7,8.9,15.6,16.4,24,23.9c3.9,3.5,8.7,6.2,13.6,8.3c15.6,6.6,30.4-4,29.1-20.9c-0.5-6.5-2.2-13.2-4.6-19.3
	c-4.9-12.4-10.7-24.4-16-36.6c-8-18.6-16.6-37.1-23.4-56.2c-3.7-10.5-5.5-22-6-33.2c-1.1-22.3,9.6-37.4,30.5-45.3
	c12.6-4.8,25.8-6.6,39.2-6.7C1135.8,1394.1,1158.5,1394.2,1181.1,1394.2C1181.1,1394.2,1181.1,1394.2,1181.1,1394.2z"/>
<path d="M1957.3,1481.6c-2.1,3.9-3.9,7-5.5,10.1c-22.5,43.9-42.1,89.1-57.7,135.9c-3.5,10.4-7.7,20.6-11.6,30.8
	c-9.3,24.3-27.6,36.7-53,39.3c-18.3,1.9-36.6,3.2-54.8,0.3c-6.5-1-13.2-2.4-19.3-4.7c-16.9-6.4-23.6-19.4-18.2-36.8
	c2.9-9.4,7.6-18.5,12.7-27c10.2-16.9,23.8-31.2,37.5-45.4c26.3-27.4,52.8-54.7,78.4-82.7c22.1-24.1,41.6-50.4,59.2-77.9
	c1.6-2.5,3.1-5.1,4.8-7.9c-1.6-3.4-3-6.7-4.7-9.9c-31.5-63.5-69.5-122.9-113-178.8c-18.9-24.2-37.1-48.8-52.2-75.6
	c-9.7-17.2-18.3-34.8-22.3-54.3c-0.3-1.3-0.7-2.6-0.9-3.9c-5-30.5,7.6-50.8,37.3-58.8c9.9-2.6,20.3-4.4,30.5-4.5
	c52-0.3,104-0.3,156,0.3c19,0.2,37.8,3.3,56,9.2c24.7,8,42.8,23.6,51.4,48c6.8,19.1,11.4,38.9,16.3,58.6c5.8,23.6,10.6,47.4,16.4,71
	c2.5,9.9,6.5,19.4,9.9,29.1c0.8,0.1,1.6,0.3,2.4,0.4c1.7-2.9,3.5-5.8,5-8.8c21.9-43.5,40.6-88.3,56.4-134.4
	c4.2-12.3,8.9-24.4,14-36.3c8.8-20.9,25-32.2,47.3-35.2c22.2-3,44.5-3.8,66.7,0.1c4.6,0.8,9.1,2.2,13.4,4
	c16,6.6,22.6,18.9,17.7,35.3c-2.8,9.4-7.3,18.6-12.4,27.1c-10.3,17.3-24.2,31.7-38,46.3c-29.1,30.7-58.4,61.2-86.8,92.6
	c-21,23.3-39.1,48.9-56.4,76.7c11.3,21.1,22.4,42.7,34.3,63.8c26.6,46.7,57.6,90.4,91.1,132.4c17.7,22.2,34.2,45.1,47.9,70.1
	c8.7,15.8,16.2,32.1,19.8,49.9c0.4,2,0.9,3.9,1.1,5.9c3.8,30.8-8.5,50.2-38.7,58.1c-13.1,3.4-26.9,5.1-40.4,5.3
	c-40.6,0.7-81.3,0.5-122,0.1c-21.7-0.2-43.2-1.7-64.4-7.3c-27.5-7.2-46.9-23.6-56.1-50.6c-6.9-20.1-12.6-40.7-18-61.3
	c-8.5-32.7-21.3-63.7-34.3-94.8C1959.5,1484.5,1958.6,1483.5,1957.3,1481.6z"/>
<path d="M1529.2,1029.6c29,0,58-0.5,87,0.2c13.6,0.3,27.4,1.4,40.5,4.5c30.9,7.2,45.3,26.4,45.6,58c0.2,19.9-4.3,39-9.4,58
	c-8.7,32.1-18.1,64-23.7,96.9c-9.9,58.1-12.9,116.4-7.8,175.2c4.4,50.3,14.9,99.3,29.2,147.7c4.4,15,7.7,30.3,10.2,45.7
	c1.6,10.1,1.8,20.7,0.8,30.8c-2.2,22.3-14.7,37.3-35.6,45.3c-16.1,6.1-33,7.7-50.1,7.7c-45.6,0.1-91.3,0.2-136.9,0
	c-20-0.1-40-0.4-59.9-1.7c-9.2-0.6-18.4-3.1-27.1-6.2c-22.7-8.3-34.3-25.3-36-49.2c-1.3-19.2,2.4-37.8,7.2-56.2
	c6.3-24.2,13.7-48.1,19.3-72.4c15.2-66,20.4-132.9,15.1-200.5c-4.2-53-15-104.7-30-155.6c-4.5-15.3-8-31-10.2-46.7
	c-1.6-11-1.3-22.6,0.2-33.7c2.6-19.1,14.3-31.8,31.8-39.1c14-5.9,28.8-8.2,43.9-8.3c32-0.1,64,0,96,0
	C1529.2,1029.7,1529.2,1029.6,1529.2,1029.6z"/>
</svg>
